<svg width="70" height="70" viewBox="0 0 70 70" fill="none" xmlns="http://www.w3.org/2000/svg">
<path d="M58.1423 29.9865C58.5333 32.161 60.2881 33.9662 62.4976 33.9662H66.0033C68.2124 33.9662 70.0033 32.1753 70.0033 29.9662V4C70.0033 1.79086 68.2124 0 66.0033 0H40.0372C37.8281 0 36.0372 1.79086 36.0372 4V7.50838C36.0372 9.71828 37.8431 11.4733 40.0182 11.8642C41.5966 12.1478 43.144 12.6005 44.6329 13.2167C47.3582 14.3447 49.8345 15.9987 51.9202 18.0841C54.0059 20.1696 55.6607 22.6456 56.7887 25.3707C57.4054 26.86 57.8584 28.4076 58.1423 29.9865ZM11.8658 40.0125C11.4742 37.8384 9.71948 36.0336 7.51034 36.0336H4C1.79086 36.0336 0 37.8245 0 40.0336V66C0 68.2091 1.79086 70 4 70H29.9662C32.1754 70 33.9662 68.2091 33.9662 66V62.4832C33.9662 60.2737 32.1611 58.5189 29.9865 58.1279C28.4086 57.8442 26.8618 57.3916 25.3733 56.7754C22.6488 55.6479 20.1733 53.9942 18.088 51.9095C16.0027 49.8254 14.3484 47.3501 13.2199 44.626C12.6032 43.1375 12.15 41.5906 11.8658 40.0125Z" fill="#107895"/>
<path d="M11.8647 29.9859C11.4736 32.1607 9.71869 33.9662 7.50904 33.9662H4C1.79086 33.9662 0 32.1753 0 29.9662V4C0 1.79086 1.79086 0 4 0H29.9662C32.1754 0 33.9662 1.79086 33.9662 4V7.50903C33.9662 9.71867 32.1607 11.4736 29.9859 11.8647C28.4076 12.1485 26.8604 12.6014 25.3716 13.2178C22.6467 14.346 20.1708 16 18.0854 18.0854C16 20.1708 14.3459 22.6467 13.2177 25.3716C12.6013 26.8604 12.1485 28.4076 11.8647 29.9859Z" fill="#F8C018"/>
<path d="M58.1412 40.0126C58.5329 37.8384 60.2876 36.0337 62.4968 36.0337H66.0032C68.2123 36.0337 70.0032 37.8246 70.0032 40.0337V66C70.0032 68.2092 68.2123 70 66.0032 70H40.0371C37.828 70 36.0371 68.2092 36.0371 66V62.4839C36.0371 60.2742 37.8427 58.5192 40.0176 58.1284C41.5956 57.8448 43.1426 57.3924 44.6312 56.7765C47.356 55.649 49.8317 53.9958 51.9175 51.9112C54.0032 49.8265 55.6579 47.3512 56.7865 44.6269C57.4035 43.1382 57.8569 41.591 58.1412 40.0126Z" fill="#F8C018"/>
</svg>
